<svg xmlns="http://www.w3.org/2000/svg" width="1000" height="24" viewBox="0 0 1000 24" role="img" aria-label="divider"><defs><style></style></defs><rect x="0" y="4" width="16" height="16" fill="#111111"/><rect x="24" y="4" width="16" height="16" fill="#FFD23F"/><rect x="48" y="4" width="16" height="16" fill="#3DDCFF"/><rect x="72" y="4" width="16" height="16" fill="#FF5CA8"/><rect x="96" y="4" width="16" height="16" fill="#A8FF3E"/><rect x="120" y="4" width="16" height="16" fill="#B58CFF"/><rect x="144" y="4" width="16" height="16" fill="#FF8A3D"/><rect x="168" y="4" width="16" height="16" fill="#111111"/><rect x="192" y="4" width="16" height="16" fill="#FFD23F"/><rect x="216" y="4" width="16" height="16" fill="#3DDCFF"/><rect x="240" y="4" width="16" height="16" fill="#FF5CA8"/><rect x="264" y="4" width="16" height="16" fill="#A8FF3E"/><rect x="288" y="4" width="16" height="16" fill="#B58CFF"/><rect x="312" y="4" width="16" height="16" fill="#FF8A3D"/><rect x="336" y="4" width="16" height="16" fill="#111111"/><rect x="360" y="4" width="16" height="16" fill="#FFD23F"/><rect x="384" y="4" width="16" height="16" fill="#3DDCFF"/><rect x="408" y="4" width="16" height="16" fill="#FF5CA8"/><rect x="432" y="4" width="16" height="16" fill="#A8FF3E"/><rect x="456" y="4" width="16" height="16" fill="#B58CFF"/><rect x="480" y="4" width="16" height="16" fill="#FF8A3D"/><rect x="504" y="4" width="16" height="16" fill="#111111"/><rect x="528" y="4" width="16" height="16" fill="#FFD23F"/><rect x="552" y="4" width="16" height="16" fill="#3DDCFF"/><rect x="576" y="4" width="16" height="16" fill="#FF5CA8"/><rect x="600" y="4" width="16" height="16" fill="#A8FF3E"/><rect x="624" y="4" width="16" height="16" fill="#B58CFF"/><rect x="648" y="4" width="16" height="16" fill="#FF8A3D"/><rect x="672" y="4" width="16" height="16" fill="#111111"/><rect x="696" y="4" width="16" height="16" fill="#FFD23F"/><rect x="720" y="4" width="16" height="16" fill="#3DDCFF"/><rect x="744" y="4" width="16" height="16" fill="#FF5CA8"/><rect x="768" y="4" width="16" height="16" fill="#A8FF3E"/><rect x="792" y="4" width="16" height="16" fill="#B58CFF"/><rect x="816" y="4" width="16" height="16" fill="#FF8A3D"/><rect x="840" y="4" width="16" height="16" fill="#111111"/><rect x="864" y="4" width="16" height="16" fill="#FFD23F"/><rect x="888" y="4" width="16" height="16" fill="#3DDCFF"/><rect x="912" y="4" width="16" height="16" fill="#FF5CA8"/><rect x="936" y="4" width="16" height="16" fill="#A8FF3E"/><rect x="960" y="4" width="16" height="16" fill="#B58CFF"/><rect x="984" y="4" width="16" height="16" fill="#FF8A3D"/></svg>